<?xml version="1.0" encoding="UTF-8"?>
  <svg xmlns="http://www.w3.org/2000/svg" width="1920" height="1080" viewBox="0 0 1920 1080">
    
    <rect width="1920" height="1080" fill="#000000"/>
    <text x="110" y="90" font-family="Menlo, Monaco, monospace" font-size="24" fill="#88948d">COLD OPEN</text>
    <rect x="260" y="260" width="28" height="180" rx="26" ry="26" fill="#92ff5b" fill-opacity="1"/><rect x="338" y="290" width="28" height="120" rx="26" ry="26" fill="#92ff5b" fill-opacity="1"/><rect x="416" y="245" width="28" height="210" rx="26" ry="26" fill="#92ff5b" fill-opacity="1"/><rect x="494" y="305" width="28" height="90" rx="26" ry="26" fill="#92ff5b" fill-opacity="1"/><rect x="572" y="230" width="28" height="240" rx="26" ry="26" fill="#92ff5b" fill-opacity="1"/><rect x="650" y="280" width="28" height="140" rx="26" ry="26" fill="#92ff5b" fill-opacity="1"/><rect x="728" y="260" width="28" height="180" rx="26" ry="26" fill="#92ff5b" fill-opacity="1"/><rect x="806" y="290" width="28" height="120" rx="26" ry="26" fill="#92ff5b" fill-opacity="1"/><rect x="884" y="245" width="28" height="210" rx="26" ry="26" fill="#92ff5b" fill-opacity="1"/><rect x="962" y="305" width="28" height="90" rx="26" ry="26" fill="#92ff5b" fill-opacity="1"/><rect x="1040" y="230" width="28" height="240" rx="26" ry="26" fill="#92ff5b" fill-opacity="1"/><rect x="1118" y="280" width="28" height="140" rx="26" ry="26" fill="#92ff5b" fill-opacity="1"/><rect x="1196" y="260" width="28" height="180" rx="26" ry="26" fill="#92ff5b" fill-opacity="1"/><rect x="1274" y="290" width="28" height="120" rx="26" ry="26" fill="#92ff5b" fill-opacity="1"/><rect x="1352" y="245" width="28" height="210" rx="26" ry="26" fill="#92ff5b" fill-opacity="1"/><rect x="1430" y="305" width="28" height="90" rx="26" ry="26" fill="#92ff5b" fill-opacity="1"/><rect x="1508" y="230" width="28" height="240" rx="26" ry="26" fill="#92ff5b" fill-opacity="1"/><rect x="1586" y="280" width="28" height="140" rx="26" ry="26" fill="#92ff5b" fill-opacity="1"/>
    <rect x="110" y="660" width="1700" height="250" rx="26" ry="26" fill="#0d1210" fill-opacity="0.94"/>
    <text x="160" y="720" font-family="'Avenir Next', Helvetica, Arial, sans-serif" font-size="34" font-weight="500" fill="#eef6f2">GPT-Live    So, what's blocking the release?</text>
    <text x="160" y="795" font-family="'Avenir Next', Helvetica, Arial, sans-serif" font-size="42" font-weight="700" fill="#92ff5b">Me          The login flow. Uh... I want say... えっと...</text>
    <text x="1510" y="96" font-family="Menlo, Monaco, monospace" font-size="22" fill="#ffe58d">freeze detected</text>
  
  </svg>